<svg width="16" height="14" viewBox="0 0 16 14" fill="none" xmlns="http://www.w3.org/2000/svg">
<path d="M9.81749 1.11367C9.52396 0.821409 9.04909 0.822431 8.75683 1.11595C8.46457 1.40948 8.46559 1.88435 8.75911 2.17661L12.85 6.24996H1.33337C0.91916 6.24996 0.583374 6.58574 0.583374 6.99996C0.583374 7.41417 0.91916 7.74996 1.33337 7.74996H12.8499L8.75907 11.8239C8.46557 12.1162 8.46459 12.5911 8.75688 12.8846C9.04916 13.1781 9.52404 13.1791 9.81753 12.8868L15.1745 7.55188C15.3234 7.41482 15.4167 7.21828 15.4167 6.99996C15.4167 6.78405 15.3255 6.58946 15.1795 6.45262L9.81749 1.11367Z" fill="white"/>
</svg>
