<svg width="119" height="28" viewBox="0 0 119 28" fill="none" xmlns="http://www.w3.org/2000/svg">
<path d="M71.7931 1.08337C73.6255 1.08337 75.0969 1.49319 76.2075 2.31281C77.318 3.13244 77.8733 4.38009 77.8733 6.05577C77.8733 8.35073 77.1422 10.0537 75.68 11.1648C74.2178 12.2758 72.3113 12.8313 69.9607 12.8313H63.2141L62.0203 20.208H58.7441L61.8259 1.08337H71.7931ZM70.0995 10.3451C71.4506 10.3451 72.5334 10.0173 73.3478 9.3616C74.1807 8.7059 74.5972 7.74967 74.5972 6.49291C74.5972 5.58221 74.2918 4.89919 73.681 4.44384C73.0887 3.97028 72.2465 3.7335 71.1545 3.7335H64.6578L63.6028 10.3451H70.0995Z" fill="#161819"/>
<path d="M85.8979 5.564C88.1745 5.564 89.8311 6.04667 90.8676 7.012C91.9226 7.97734 92.302 9.40713 92.0059 11.3014L90.5622 20.208H87.6747L88.1467 17.312C86.5364 19.4612 84.2228 20.5358 81.2058 20.5358C79.5585 20.5358 78.3184 20.208 77.4855 19.5523C76.6711 18.8966 76.2639 18.0314 76.2639 16.9568C76.2639 15.4268 76.8932 14.2611 78.1518 13.4597C79.4104 12.6583 81.2984 12.1574 83.8156 11.9571L88.8408 11.5473L88.9796 10.673C89.1277 9.79873 88.9148 9.08839 88.3411 8.54197C87.7673 7.99556 86.8326 7.72235 85.5369 7.72235C84.4264 7.72235 83.4732 7.93181 82.6773 8.35073C81.8999 8.76965 81.3816 9.37981 81.1225 10.1812H78.2073C78.5775 8.5784 79.4567 7.41271 80.8449 6.68415C82.2331 5.93738 83.9174 5.564 85.8979 5.564ZM82.4274 18.3775C84.0562 18.3775 85.4074 17.9768 86.4809 17.1754C87.5729 16.374 88.2208 15.3631 88.4244 14.1428L88.5354 13.4324L83.8989 13.7876C80.9004 14.0426 79.4012 14.9442 79.4012 16.4923C79.4012 17.057 79.651 17.5123 80.1508 17.8584C80.669 18.2045 81.4279 18.3775 82.4274 18.3775Z" fill="#161819"/>
<path d="M106.502 5.89185H110L101.282 21.6013C100.375 23.277 99.4498 24.4245 98.5058 25.0438C97.5619 25.6813 96.2477 26 94.5634 26C93.8785 26 93.2122 25.9636 92.5644 25.8907L92.9531 23.5138C93.5639 23.5685 94.1562 23.5958 94.73 23.5958C95.6184 23.5958 96.3125 23.4318 96.8122 23.104C97.3305 22.7761 97.858 22.1478 98.3948 21.2189L98.95 20.208H97.423L93.203 5.89185H96.5901L99.9218 18.7053L106.502 5.89185Z" fill="#161819"/>
<path fill-rule="evenodd" clip-rule="evenodd" d="M54.8755 7.08764C53.7661 5.98331 52.2868 5.43114 50.4377 5.43114C48.0709 5.43114 46.1756 6.21866 44.7518 7.79369L45.9999 0H41.4511L38.206 19.9866H42.4496L42.8657 17.4611C43.7717 19.362 45.5099 20.3125 48.0801 20.3125C50.4655 20.3125 52.4717 19.5159 54.0989 17.9228C55.7261 16.3296 56.5397 14.2205 56.5397 11.5955C56.5397 9.69459 55.985 8.19197 54.8755 7.08764ZM50.6873 15.5602C49.7813 16.4473 48.6164 16.8909 47.1926 16.8909C45.9537 16.8909 45.0199 16.5288 44.3912 15.8046C43.7625 15.0805 43.5314 14.13 43.6978 12.9533L43.781 12.5188C44.0399 11.3963 44.5853 10.5093 45.4174 9.85752C46.2495 9.18768 47.2665 8.85276 48.4684 8.85276C49.5964 8.85276 50.4747 9.16053 51.1034 9.77606C51.7321 10.3735 52.0464 11.1791 52.0464 12.1929C52.0464 13.5507 51.5934 14.6731 50.6873 15.5602Z" fill="url(#paint0_linear_103_660)"/>
<path d="M38.5282 5.75701H33.9794L32.9255 12.1114H32.9532C32.7128 13.4511 32.2043 14.5464 31.4277 15.3973C30.6511 16.2301 29.6711 16.6465 28.4876 16.6465C26.3982 16.6465 25.5661 15.2977 25.9914 12.6003L27.1008 5.75701H22.5521L21.2207 13.9852C20.9064 15.9947 21.156 17.5516 21.9696 18.656C22.8017 19.7603 24.1608 20.3125 26.0468 20.3125C28.7835 20.3125 30.9192 19.2262 32.4539 17.0538L31.9824 19.9866H36.2261L38.5282 5.75701Z" fill="url(#paint1_linear_103_660)"/>
<path d="M8.63401 5.88615L9.04514 3.60676L15.5412 7.8475L7.29093 12.1677L7.78431 9.91485C3.26072 9.91485 0.986743 11.908 0 19.9866H5.50932L6.66052 14.8447H9.78521L12.2247 19.9866H18.2822L15.2123 14.1026C17.1766 13.1484 21.0067 10.2223 20.612 6.1512C20.2173 2.08009 16.5736 1.00931 14.8012 0.982803H4.13885L2.67367 7.8475C3.92774 6.6248 6.01287 5.67494 8.63401 5.88615Z" fill="url(#paint2_linear_103_660)"/>
<defs>
<linearGradient id="paint0_linear_103_660" x1="-11.9757" y1="-6.9661" x2="-8.98946" y2="27.9324" gradientUnits="userSpaceOnUse">
<stop stop-color="#3252FC"/>
<stop offset="1" stop-color="#1BD1D5"/>
</linearGradient>
<linearGradient id="paint1_linear_103_660" x1="-11.9757" y1="-6.9661" x2="-8.98946" y2="27.9324" gradientUnits="userSpaceOnUse">
<stop stop-color="#3252FC"/>
<stop offset="1" stop-color="#1BD1D5"/>
</linearGradient>
<linearGradient id="paint2_linear_103_660" x1="-11.9757" y1="-6.9661" x2="-8.98946" y2="27.9324" gradientUnits="userSpaceOnUse">
<stop stop-color="#3252FC"/>
<stop offset="1" stop-color="#1BD1D5"/>
</linearGradient>
</defs>
</svg>
